<?xml version="1.0" encoding="UTF-8" standalone="no"?>
<!-- Created with Inkscape (http://www.inkscape.org/) -->

<svg
   xmlns:dc="http://purl.org/dc/elements/1.1/"
   xmlns:cc="http://creativecommons.org/ns#"
   xmlns:rdf="http://www.w3.org/1999/02/22-rdf-syntax-ns#"
   xmlns:svg="http://www.w3.org/2000/svg"
   xmlns="http://www.w3.org/2000/svg"
   xmlns:sodipodi="http://sodipodi.sourceforge.net/DTD/sodipodi-0.dtd"
   xmlns:inkscape="http://www.inkscape.org/namespaces/inkscape"
   width="200"
   height="200"
   viewBox="0 0 52.916665 52.916668"
   version="1.1"
   id="svg8"
   inkscape:version="0.92.2 (5c3e80d, 2017-08-06)"
   sodipodi:docname="logo.svg"
   inkscape:export-filename="/home/tim/go/src/github.com/timdrysdale/vw/img/logo.png"
   inkscape:export-xdpi="96"
   inkscape:export-ydpi="96">
  <defs
     id="defs2" />
  <sodipodi:namedview
     id="base"
     pagecolor="#ffffff"
     bordercolor="#666666"
     borderopacity="1.0"
     inkscape:pageopacity="0.0"
     inkscape:pageshadow="2"
     inkscape:zoom="2.8"
     inkscape:cx="152.45574"
     inkscape:cy="104.10431"
     inkscape:document-units="mm"
     inkscape:current-layer="layer1"
     showgrid="false"
     units="px"
     inkscape:window-width="1920"
     inkscape:window-height="1101"
     inkscape:window-x="0"
     inkscape:window-y="28"
     inkscape:window-maximized="1" />
  <metadata
     id="metadata5">
    <rdf:RDF>
      <cc:Work
         rdf:about="">
        <dc:format>image/svg+xml</dc:format>
        <dc:type
           rdf:resource="http://purl.org/dc/dcmitype/StillImage" />
        <dc:title></dc:title>
      </cc:Work>
    </rdf:RDF>
  </metadata>
  <g
     inkscape:label="Layer 1"
     inkscape:groupmode="layer"
     id="layer1"
     transform="translate(0,-244.08332)">
    <flowRoot
       xml:space="preserve"
       id="flowRoot81"
       style="font-style:normal;font-variant:normal;font-weight:normal;font-stretch:normal;font-size:40px;line-height:1.25;font-family:comfort-aa;-inkscape-font-specification:comfort-aa;letter-spacing:0px;word-spacing:0px;fill:#000000;fill-opacity:1;stroke:none"
       transform="scale(0.26458333)"><flowRegion
         id="flowRegion83"><rect
           id="rect85"
           width="42.142857"
           height="65.714287"
           x="864.28571"
           y="779.66254" /></flowRegion><flowPara
         id="flowPara87"></flowPara></flowRoot>    <g
       id="g219"
       transform="matrix(0.01339304,0,0,-0.01321093,-0.26730467,297.37104)"
       style="fill:#000000;stroke:none">
      <path
         id="path209"
         d="m 580,3539 c -38,-15 -70,-50 -70,-76 0,-17 -6,-23 -23,-23 -13,0 -34,-11 -47,-25 -18,-20 -22,-32 -17,-64 3,-22 3,-42 0,-45 -3,-3 -20,11 -38,30 -27,28 -40,34 -74,34 -33,0 -49,-7 -80,-36 -22,-19 -45,-51 -52,-71 l -11,-35 -32,30 c -31,30 -72,53 -113,66 -39,12 -27,-19 13,-33 43,-16 109,-73 130,-113 19,-36 34,-28 34,19 0,47 35,107 76,129 45,24 77,9 106,-51 12,-25 25,-45 29,-45 4,0 14,12 24,26 12,19 23,25 41,21 29,-5 30,0 4,33 -20,26 -24,47 -14,74 7,18 35,21 50,6 22,-22 42,-1 37,38 -4,28 0,41 14,53 44,39 123,27 149,-22 19,-38 47,-35 55,6 5,25 7,27 14,12 7,-17 5,-40 -11,-103 -7,-28 -7,-28 42,15 66,58 114,81 169,81 60,0 95,-32 95,-87 0,-46 -18,-74 -73,-114 l -40,-29 h 45 c 52,0 73,-18 70,-60 -2,-32 20,-46 38,-24 26,30 81,11 105,-36 26,-51 20,-94 -20,-129 -43,-37 -44,-51 -5,-51 42,0 74,-34 65,-68 -8,-36 -22,-48 -70,-66 l -40,-15 h 38 c 50,-1 48,-23 -3,-46 -22,-10 -39,-19 -38,-21 2,-1 32,4 68,11 36,7 66,12 68,10 2,-1 -16,-17 -40,-35 -34,-25 -38,-31 -18,-26 93,24 135,18 185,-26 29,-25 35,-37 35,-70 0,-47 -30,-79 -93,-101 -42,-15 -42,-16 8,-32 21,-6 30,-34 18,-55 -10,-15 -6,-16 37,-16 38,1 54,-4 74,-23 37,-34 51,-83 34,-117 -24,-50 -62,-69 -136,-69 -37,0 -79,4 -93,8 -24,6 -25,4 -21,-22 3,-21 -2,-33 -19,-45 -44,-31 -88,-10 -90,42 0,23 -2,21 -13,-13 -11,-39 -13,-40 -60,-43 -43,-3 -50,0 -81,32 l -34,36 -3,-27 c -5,-47 -74,-40 -90,9 -3,8 -11,7 -28,-5 -15,-11 -44,-17 -76,-17 -69,0 -114,30 -134,90 l -15,45 -5,-39 c -6,-45 -30,-62 -30,-22 0,20 -5,26 -22,26 -13,0 -32,-7 -42,-15 -27,-21 -93,-18 -145,5 -45,21 -61,19 -61,-6 0,-26 -55,-72 -93,-79 -27,-5 -47,-2 -75,12 -37,18 -39,18 -68,1 -16,-10 -44,-18 -61,-18 -31,0 -33,-2 -33,-36 0,-29 11,-50 53,-101 l 52,-65 5,98 5,99 9,-78 8,-77 102,-31 c 55,-18 106,-34 113,-36 6,-3 30,23 53,57 l 42,62 -21,75 c -12,41 -21,76 -19,78 2,1 13,-1 25,-6 15,-5 32,-30 48,-65 21,-46 25,-72 25,-145 0,-48 4,-90 9,-93 4,-3 70,38 146,90 l 137,96 56,-6 c 32,-4 86,-13 122,-20 l 65,-14 -115,-1 -116,-1 -93,-112 -93,-113 6,-120 c 10,-184 39,-514 47,-526 5,-8 43,-4 135,14 71,14 111,25 89,24 -26,0 -63,12 -105,33 -119,60 -117,57 -124,162 -4,51 -9,127 -12,169 l -6,75 81,33 c 45,17 159,51 254,75 195,50 217,57 237,80 11,15 11,19 -3,33 -21,21 -221,35 -382,26 l -119,-6 24,31 25,31 225,3 c 425,6 780,-4 780,-22 0,-4 -75,-22 -167,-39 -482,-92 -775,-199 -829,-302 -31,-61 -7,-122 69,-177 48,-34 206,-115 247,-126 14,-4 -18,14 -70,39 -111,54 -154,85 -176,126 -28,55 4,102 106,154 90,45 236,90 577,179 310,80 343,91 343,113 0,18 67,17 86,-1 7,-8 57,-29 109,-46 53,-18 94,-34 92,-36 -2,-3 -91,-23 -198,-44 -225,-47 -304,-70 -377,-112 -94,-53 -103,-96 -35,-162 43,-42 184,-116 319,-169 51,-20 341,-119 645,-220 C 3250,831 3501,730 3707,594 3958,428 3941,287 3656,150 3561,105 3359,32 3280,15 3261,10 3250,5 3257,3 c 6,-2 59,10 118,27 424,124 588,254 521,415 -37,88 -185,200 -403,307 -205,100 -447,191 -943,354 -706,232 -825,278 -952,362 -41,26 -69,68 -61,90 8,20 33,14 33,-9 0,-71 81,-106 788,-344 321,-107 662,-225 758,-261 439,-163 690,-297 823,-439 33,-36 61,-60 61,-52 0,23 -131,141 -223,201 -47,31 -158,92 -244,136 -313,156 -642,280 -1228,465 -589,184 -693,223 -715,264 -17,32 -12,33 34,6 45,-27 197,-85 219,-85 7,1 -28,16 -78,34 -116,42 -148,59 -175,93 l -22,28 26,21 c 33,29 126,59 266,85 286,53 353,68 371,85 10,9 19,21 19,25 0,14 -53,37 -126,55 -38,9 -73,21 -79,25 -11,10 468,12 603,3 l 92,-7 v -30 -29 l -55,7 c -51,6 -58,4 -88,-21 -17,-15 -68,-44 -111,-66 -86,-41 -81,-45 38,-28 37,6 81,19 96,30 24,17 34,18 86,10 102,-16 248,-28 277,-23 l 28,6 -22,23 c -12,13 -21,25 -18,27 2,2 16,8 31,14 21,10 27,9 32,-3 5,-14 47,-20 59,-8 3,3 -8,18 -24,31 -29,25 -32,25 -90,14 -67,-13 -79,-10 -79,23 0,23 2,23 167,29 91,4 243,7 338,7 261,0 595,12 595,22 0,4 -250,8 -556,8 h -557 l 6,56 c 3,31 8,59 11,61 3,3 15,-5 26,-18 20,-22 20,-22 11,-2 -26,53 7,100 37,54 l 15,-22 11,22 c 17,35 42,46 67,31 18,-12 21,-11 26,7 3,12 14,21 24,21 12,0 16,5 13,15 -15,38 52,64 111,45 42,-14 52,-43 37,-109 -10,-45 -9,-45 7,-22 40,60 48,66 65,52 23,-19 20,-35 -11,-72 l -28,-33 25,8 c 60,18 117,18 144,1 25,-16 28,-16 45,-1 27,24 35,20 53,-26 l 17,-43 v 38 c 1,35 13,48 26,27 15,-24 35,-9 35,24 0,56 35,88 102,94 74,6 92,-12 85,-82 -6,-50 -6,-50 8,-21 8,17 14,36 15,43 0,17 36,15 55,-4 9,-9 15,-28 13,-42 -3,-23 1,-26 27,-26 21,-1 31,4 33,17 2,11 -3,17 -15,17 -13,0 -22,11 -28,33 -7,23 -18,35 -42,42 -17,6 -40,19 -52,29 -63,57 -202,27 -232,-51 -7,-18 -16,-22 -51,-22 -24,0 -52,0 -63,-1 -11,-1 -39,2 -61,5 -36,6 -43,12 -51,39 -6,23 -17,34 -43,42 -19,6 -38,21 -43,32 -28,63 -167,68 -201,7 -12,-22 -46,-50 -61,-51 -22,-1 -55,-16 -55,-24 0,-5 -13,-7 -30,-4 -18,4 -36,1 -45,-6 -10,-8 -15,-9 -15,-2 0,6 27,19 61,28 58,16 63,21 102,80 37,56 46,64 75,64 29,0 72,28 72,48 0,4 10,12 22,17 30,14 38,45 22,90 -8,22 -14,52 -14,68 0,27 -30,67 -51,67 -7,0 -9,16 -4,50 7,48 6,50 -24,67 -24,14 -29,23 -24,41 7,30 -13,77 -43,97 -32,21 -103,19 -133,-4 -24,-19 -25,-19 -44,5 -20,26 -65,32 -85,12 -9,-9 -12,-9 -12,3 0,8 -19,32 -41,53 -40,36 -43,37 -93,31 -28,-4 -55,-10 -59,-15 -4,-4 -30,-5 -56,-2 -41,4 -52,1 -71,-18 -18,-18 -21,-30 -17,-62 5,-34 2,-40 -18,-48 -45,-17 -70,-81 -45,-120 5,-9 5,-19 -2,-27 -6,-7 -8,-27 -4,-43 3,-17 1,-30 -4,-30 -6,0 -10,-7 -10,-15 0,-8 -6,-15 -13,-15 -43,0 -65,-90 -27,-110 25,-13 26,-40 2,-40 -39,0 -66,-62 -44,-97 11,-18 63,-35 88,-29 16,4 23,1 27,-14 3,-11 18,-25 34,-32 15,-7 31,-18 35,-24 5,-7 34,-10 80,-8 l 73,4 39,-45 c 39,-45 39,-46 26,-85 -15,-46 -31,-50 -54,-15 -13,20 -25,25 -59,25 -23,0 -49,-4 -57,-10 -11,-7 -19,0 -35,28 -26,47 -75,72 -143,72 -60,0 -108,-20 -117,-50 -5,-16 -10,-18 -25,-10 -27,15 -82,12 -107,-5 -16,-11 -22,-30 -28,-79 l -7,-66 -50,-6 c -29,-4 -59,-15 -69,-25 -24,-24 -129,-28 -129,-4 0,24 -32,34 -136,44 -57,5 -100,13 -102,20 -8,24 -34,41 -63,41 -26,0 -29,3 -29,30 0,62 -75,101 -126,66 -17,-12 -22,-12 -39,0 -10,8 -27,14 -37,14 -11,0 -18,7 -18,19 0,17 8,18 78,18 121,-1 172,36 172,126 0,42 -5,54 -33,82 -20,20 -48,36 -70,40 -26,5 -37,12 -37,25 0,10 -7,23 -15,30 -13,11 -10,15 17,30 47,25 72,71 63,117 -9,47 -59,98 -111,112 -33,9 -40,15 -40,33 1,19 -5,24 -31,26 -18,2 -33,5 -33,7 0,3 9,19 20,37 28,46 26,93 -5,124 -24,24 -24,27 -10,54 21,41 19,96 -7,142 -25,45 -62,68 -108,68 -18,0 -30,5 -30,13 0,8 -9,22 -19,32 -20,17 -20,17 1,46 29,39 30,118 2,157 -49,66 -141,78 -228,29 l -43,-24 -9,31 c -7,24 -16,32 -38,34 -16,2 -33,-1 -38,-6 -6,-6 -23,-2 -46,9 -40,21 -83,23 -122,8 z m 2180,-665 c 0,-21 4,-24 20,-19 23,7 38,-18 22,-38 -8,-9 -4,-15 13,-23 20,-10 24,-8 34,12 6,13 18,24 27,24 26,0 54,-30 54,-57 0,-12 5,-23 10,-23 6,0 10,4 10,9 0,23 54,61 87,61 66,0 107,-75 63,-115 -22,-20 -18,-35 11,-35 11,0 29,-5 40,-11 16,-8 18,-13 8,-25 -6,-8 -9,-17 -5,-21 3,-3 -1,-17 -10,-31 -18,-27 -15,-32 29,-47 30,-10 32,-13 29,-52 -1,-29 2,-42 13,-47 8,-3 15,-17 15,-31 0,-24 -3,-25 -52,-25 l -53,-1 24,-20 c 29,-24 24,-31 -29,-35 -23,-2 -48,-11 -56,-19 -18,-18 -46,-19 -62,-3 -8,8 -15,8 -26,-1 -28,-23 -60,-9 -83,37 0,2 -15,-4 -33,-13 -25,-13 -38,-14 -62,-6 -38,14 -38,14 -38,-1 0,-7 -18,-22 -40,-32 -31,-15 -45,-17 -63,-9 -19,9 -26,8 -35,-6 -11,-15 -12,-15 -22,1 -9,15 -13,13 -41,-14 -29,-29 -31,-30 -44,-12 -13,18 -14,18 -15,2 0,-10 -4,-18 -9,-18 -15,0 -33,29 -27,45 4,13 -1,14 -34,9 -63,-10 -90,1 -90,37 0,25 6,33 30,42 17,6 30,17 30,23 0,7 8,15 18,19 14,5 11,9 -15,20 -38,16 -43,43 -13,70 15,14 29,16 62,11 34,-6 41,-5 31,5 -7,7 -13,25 -13,39 0,14 -5,31 -11,37 -13,13 -4,33 17,33 18,0 18,24 -1,40 -29,24 -12,96 20,84 6,-3 18,2 25,11 7,8 27,15 44,15 h 31 l -32,26 c -37,29 -42,58 -14,74 23,12 45,5 90,-28 l 34,-25 -7,26 c -5,20 -3,27 8,27 8,0 16,7 20,15 3,9 18,15 36,15 26,0 30,-4 30,-26 z m 85,-626 c -4,-25 0,-40 17,-61 23,-28 23,-28 67,-12 50,17 65,19 57,6 -3,-5 -28,-14 -55,-21 l -48,-11 -7,-61 c -9,-89 -8,-142 6,-215 10,-58 14,-64 32,-59 107,28 128,30 142,11 8,-10 12,-21 9,-24 -3,-2 -11,4 -19,15 -14,18 -16,18 -88,-6 -62,-21 -69,-25 -43,-28 17,-2 35,-8 40,-14 7,-7 -2,-9 -30,-5 -22,4 -65,9 -96,13 l -55,6 11,97 c 8,61 9,121 3,166 -7,62 -12,73 -48,110 -22,22 -40,44 -40,48 0,3 26,-9 58,-28 l 57,-35 6,58 c 5,55 14,82 25,82 3,0 2,-15 -1,-32 z M 622,2142 c 7,3 25,-3 39,-13 14,-10 47,-23 73,-30 l 48,-12 -33,-21 c -46,-29 -167,-37 -181,-11 -5,8 -18,15 -28,15 -13,0 -27,14 -40,41 -12,23 -20,42 -18,43 2,2 19,7 38,12 29,9 40,7 62,-9 14,-11 32,-17 40,-15 z m -244,-64 c 3,-30 7,-38 23,-38 23,0 24,-13 3,-45 -15,-24 -21,-25 -113,-25 -133,0 -141,3 -141,52 0,40 0,40 32,34 17,-3 32,-7 33,-9 2,-1 10,-15 19,-32 l 17,-30 -6,32 c -4,18 -4,42 0,53 9,28 53,50 95,47 33,-2 35,-4 38,-39 z m 2082,27 c 16,-8 34,-24 40,-34 11,-22 13,-74 4,-108 -6,-23 -8,-23 -185,-23 h -179 v 29 c 0,17 4,32 9,35 4,3 6,17 3,31 -4,23 -2,25 34,25 25,0 45,-7 60,-21 26,-25 44,-18 44,16 0,39 37,65 92,65 27,0 62,-7 78,-15 z m -975,-20 c 29,-28 32,-60 8,-74 -14,-8 -8,-10 29,-11 56,0 89,-24 65,-47 -11,-12 -45,-13 -191,-7 l -177,7 -15,28 c -7,15 -14,33 -14,39 0,17 38,11 49,-7 9,-16 10,-15 11,6 0,23 1,23 18,8 18,-16 18,-15 14,13 -8,58 43,82 74,34 16,-24 18,-24 27,-7 25,48 66,55 102,18 z m 1175,-64 c 5,-11 10,-30 10,-42 0,-21 1,-21 20,-4 10,9 26,15 35,12 11,-5 15,1 16,26 l 1,32 8,-32 c 4,-18 5,-43 3,-56 -5,-23 -5,-23 -121,-19 -64,2 -118,6 -120,7 -8,7 29,65 50,79 32,23 85,21 98,-3 z M 1160,1822 c 24,-9 24,-9 -10,-20 -19,-6 -102,-28 -185,-48 -82,-20 -187,-51 -232,-69 l -83,-32 v 65 c 0,58 3,69 28,95 l 27,29 215,-5 c 118,-3 226,-10 240,-15 z"
         inkscape:connector-curvature="0" />
      <path
         id="path211"
         d="m 0,1975 c 0,-30 4,-45 13,-45 7,0 24,-13 37,-28 17,-19 44,-32 85,-42 l 60,-15 -97,-3 c -54,-1 -98,-6 -98,-11 0,-5 62,-6 138,-4 80,3 148,1 162,-5 25,-10 27,-17 52,-193 l 26,-184 -17,-135 c -13,-107 -19,-135 -31,-133 -8,1 -75,12 -149,24 L 47,1224 24,1194 C 6,1173 0,1152 0,1118 c 0,-46 1,-48 28,-48 20,0 32,8 46,30 11,20 23,29 34,26 9,-3 37,-10 62,-17 25,-7 49,-15 53,-19 4,-4 -12,-29 -37,-57 l -45,-50 54,-7 c 41,-5 104,3 251,29 108,20 203,33 212,31 10,-3 73,10 142,28 l 125,33 61,-43 c 60,-42 62,-43 156,-46 53,-2 94,0 92,3 -2,3 -37,18 -79,34 -73,26 -107,48 -63,39 13,-3 1,4 -26,15 -27,11 -58,28 -70,39 -32,27 -56,45 -56,40 0,-10 140,-118 171,-132 l 34,-14 -46,-1 c -39,-1 -54,5 -107,45 l -61,45 -126,-30 c -70,-17 -148,-31 -173,-31 -26,0 -112,-11 -192,-25 -80,-14 -165,-25 -189,-25 h -44 l 22,24 c 17,18 39,27 77,32 30,3 56,10 59,14 2,4 -54,24 -125,45 -71,22 -128,41 -126,42 2,2 60,-6 130,-18 69,-13 128,-20 131,-17 3,2 14,77 25,164 l 20,160 -30,188 c -17,104 -30,192 -30,196 0,3 -62,21 -137,39 l -138,33 -39,54 c -22,30 -41,54 -43,54 -2,0 -3,-20 -3,-45 z"
         inkscape:connector-curvature="0" />
      <path
         id="path213"
         d="m 2225,1335 c 6,-3 107,-33 225,-69 753,-227 1308,-466 1505,-647 45,-41 45,-41 45,-15 0,19 -14,37 -57,71 -238,189 -698,376 -1447,591 -143,40 -265,74 -271,73 -6,0 -6,-2 0,-4 z"
         inkscape:connector-curvature="0" />
      <path
         id="path215"
         d="m 1615,1076 c 398,-137 643,-256 763,-370 93,-87 95,-152 10,-233 C 2268,360 1985,261 1425,136 1337,116 1195,78 1110,51 L 955,1 1018,0 c 44,0 97,10 179,35 64,20 209,56 322,81 462,103 750,210 877,327 l 54,49 v -55 c 0,-49 -4,-59 -39,-99 C 2301,213 2074,103 1775,29 1670,3 1667,2 1717,1 c 106,-2 431,123 582,223 91,61 171,146 171,183 0,50 15,58 34,20 67,-142 -76,-277 -416,-392 L 1985,0 h 63 c 150,0 411,148 475,270 35,68 32,124 -12,186 -22,32 -29,55 -33,106 -3,52 -10,75 -33,109 -83,119 -351,253 -829,415 -104,35 -194,64 -200,63 -6,0 84,-33 199,-73 z"
         inkscape:connector-curvature="0" />
      <path
         id="path217"
         d="M 1440,986 C 1613,925 1710,841 1710,751 1710,501 1105,281 205,203 16,187 0,184 0,166 c 0,-18 6,-18 102,-12 555,37 1039,141 1323,283 202,102 295,199 295,308 0,57 -17,91 -69,138 -56,51 -221,129 -265,126 -6,0 18,-11 54,-23 z"
         inkscape:connector-curvature="0" />
    </g>
    <text
       id="text235"
       y="252.46518"
       x="21.685635"
       style="font-style:normal;font-variant:normal;font-weight:normal;font-stretch:normal;font-size:5.55212927px;line-height:1.25;font-family:Comfortaa;-inkscape-font-specification:Comfortaa;letter-spacing:0px;word-spacing:0px;fill:#000000;fill-opacity:1;stroke:none;stroke-width:0.13880323"
       xml:space="preserve"><tspan
         id="tspan233"
         style="font-style:normal;font-variant:normal;font-weight:normal;font-stretch:normal;font-family:Comfortaa;-inkscape-font-specification:Comfortaa;stroke-width:0.13880323"
         y="252.46518"
         x="21.685635"
         sodipodi:role="line">streamer</tspan></text>
  </g>
</svg>
